<svg xmlns="http://www.w3.org/2000/svg" xmlns:xlink="http://www.w3.org/1999/xlink" version="1.1" x="0px" y="0px" viewBox="0 0 64 80" style="enable-background:new 0 0 64 64;" xml:space="preserve"><g><path d="M63,21h-5.22L54.273,6.972C55.246,6.837,56,6.009,56,5V3c0-1.103-0.897-2-2-2H42c-1.103,0-2,0.897-2,2v2   c0,1.009,0.754,1.837,1.727,1.972L38.22,21H30v-6.723l-2,1.143V1H18v20.134l-2,1.143v-8.186l-2,1.385V1H4v21.399l-3,2.077V53   h15.831l-0.895,1.806l5.259,5.258l2.509-1.244c1.164,0.653,2.399,1.165,3.685,1.527L28.281,63h7.438l0.894-2.653   c1.285-0.362,2.521-0.874,3.685-1.527l2.509,1.244l5.259-5.258L47.169,53H63V21z M52.22,7l0.5,2H43.28l0.5-2H52.22z M42.78,11   H53.22l0.5,2H42.28L42.78,11z M54.22,15l0.5,2H41.28l0.5-2H54.22z M42,3h12l0.001,2H42V3z M40.78,19H55.22l0.5,2H40.28L40.78,19z    M26,3v2h-6V3H26z M20,7h6v9.563l-6,3.429V7z M12,3v2H6V3H12z M6,7h6v9.861l-6,4.154V7z M13.868,18H14v7.723l14-8V23h33v8H45.87   l-3.064-3.064l-2.509,1.244c-1.164-0.653-2.399-1.165-3.685-1.527L35.719,25h-7.438l-0.894,2.653   c-1.285,0.362-2.521,0.874-3.685,1.527l-2.509-1.244L18.13,31H3v-5.476L13.868,18z M3,33h13.13l-0.194,0.194l1.244,2.509   c-0.652,1.164-1.165,2.398-1.526,3.685L13,40.282v7.437l2.653,0.894c0.231,0.822,0.545,1.613,0.897,2.388H3V33z M42.407,57.634   l-2.196-1.09l-0.47,0.285c-1.288,0.779-2.683,1.357-4.145,1.717l-0.533,0.132L34.281,61h-4.563l-0.782-2.322l-0.533-0.132   c-1.462-0.36-2.856-0.938-4.145-1.717l-0.47-0.285l-2.196,1.09l-3.228-3.227l1.09-2.196l-0.284-0.47   c-0.779-1.287-1.356-2.681-1.718-4.144l-0.131-0.533L15,46.282v-4.563l2.322-0.782l0.131-0.533   c0.361-1.463,0.938-2.857,1.718-4.144l0.284-0.47l-1.09-2.196l3.228-3.227l2.196,1.09l0.47-0.285   c1.288-0.779,2.683-1.357,4.145-1.717l0.533-0.132L29.719,27h4.563l0.782,2.322l0.533,0.132c1.462,0.36,2.856,0.938,4.145,1.717   l0.47,0.285l2.196-1.09l3.228,3.227l-1.09,2.196l0.284,0.47c0.779,1.287,1.356,2.681,1.718,4.144l0.131,0.533L49,41.718v4.563   l-2.322,0.782l-0.131,0.533c-0.361,1.463-0.938,2.857-1.718,4.144l-0.284,0.47l1.09,2.196L42.407,57.634z M47.45,51   c0.351-0.775,0.666-1.566,0.897-2.388L51,47.718v-7.437l-2.653-0.894c-0.361-1.286-0.874-2.521-1.526-3.685l1.244-2.509L47.87,33   H61v18H47.45z"/><path d="M32,31c-7.168,0-13,5.832-13,13s5.832,13,13,13s13-5.832,13-13S39.168,31,32,31z M32,55c-6.065,0-11-4.935-11-11   s4.935-11,11-11s11,4.935,11,11S38.065,55,32,55z"/><path d="M32,35c-4.963,0-9,4.038-9,9s4.037,9,9,9s9-4.038,9-9S36.963,35,32,35z M32,51c-3.859,0-7-3.14-7-7s3.141-7,7-7s7,3.14,7,7   S35.859,51,32,51z"/></g><text x="0" y="79" fill="#000000" font-size="5px" font-weight="bold" font-family="'Helvetica Neue', Helvetica, Arial-Unicode, Arial, Sans-serif">Created by Eucalyp</text><text x="0" y="84" fill="#000000" font-size="5px" font-weight="bold" font-family="'Helvetica Neue', Helvetica, Arial-Unicode, Arial, Sans-serif">from the Noun Project</text></svg>