<svg xmlns="http://www.w3.org/2000/svg" version="1.1" viewBox="-5.0 -10.0 110.0 135.0">
 <path d="m93.898 42.48h-7.4102c-0.80859-3.4727-2.1797-6.7734-4.082-9.8281l5.25-5.25c0.20703-0.20703 0.32422-0.48438 0.32422-0.77734s-0.11719-0.57031-0.32422-0.77734l-9.0977-9.0703c-0.20703-0.20703-0.48438-0.32031-0.77734-0.32031h-0.003906c-0.29297 0-0.57422 0.11719-0.77734 0.32422l-5.2266 5.2422c-3.0195-1.8945-6.3203-3.2656-9.832-4.0781v-7.4062c0-0.60937-0.49219-1.1016-1.1016-1.1016l-12.828-0.007812c-0.60938 0-1.1016 0.49219-1.1016 1.1016v7.4102c-3.4766 0.80859-6.7734 2.1797-9.8281 4.082l-5.25-5.25c-0.42969-0.42969-1.1289-0.42969-1.5586 0l-9.0742 9.0742c-0.20703 0.20703-0.32422 0.48438-0.32422 0.77734s0.11719 0.57031 0.32422 0.77734l5.2422 5.2422c-0.058594 0.097657-0.11328 0.19141-0.17188 0.28516l-18.062 10.434c-0.53516 0.30859-1.0078 0.67969-1.418 1.0977-0.10547 0.078124-0.19922 0.18359-0.26953 0.30859-0.97656 1.1289-1.5195 2.5625-1.5195 4.1523v22.25c0 2.3555 1.1719 4.3828 3.2109 5.5586l18.645 10.758c0.17188 0.10156 0.36328 0.14844 0.55078 0.14844 0.38281 0 0.75-0.19531 0.95312-0.55078 0.30469-0.52734 0.125-1.1992-0.40234-1.5039l-18.648-10.762c-1.3398-0.77344-2.1055-2.1016-2.1055-3.6484v-22.25c0-0.79297 0.19141-1.5195 0.55859-2.1406l20.215 11.672c0.17578 0.10156 0.36328 0.14453 0.55078 0.14453 0.37891 0 0.75-0.19531 0.95703-0.55078 0.30469-0.52734 0.125-1.1992-0.40234-1.5039l-19.648-11.344 19.145-11.055c1.3398-0.77344 2.875-0.77344 4.2148 0l18.621 10.758c0.52734 0.30469 1.1992 0.12109 1.5039-0.40234 0.30469-0.52734 0.125-1.1992-0.40234-1.5078l-11.73-6.7773c3.625-3.582 8.5195-5.6172 13.645-5.6172 10.699 0 19.398 8.7031 19.398 19.398 0 10.059-7.5781 18.332-17.457 19.316l0.003906-23.461c0-0.39453-0.21094-0.75781-0.55078-0.95312-0.33984-0.19531-0.76172-0.19531-1.1016 0l-21.93 12.66c-2.0391 1.1758-3.207 3.1992-3.207 5.5547v25.32c0 0.39453 0.21094 0.76172 0.55078 0.95703 0.17188 0.097656 0.35938 0.14453 0.55078 0.14453s0.37891-0.050781 0.55078-0.14453l13.648-7.8828c0.66016 0.19922 1.3281 0.38672 2.0234 0.55078v7.4141c0 0.60938 0.49219 1.1016 1.1016 1.1016h12.832c0.60938 0 1.1016-0.49219 1.1016-1.1016v-7.4062c3.4766-0.8125 6.7734-2.1836 9.8281-4.0859l5.25 5.25c0.42969 0.42969 1.1289 0.42969 1.5586 0l9.0742-9.0742c0.20703-0.20703 0.32422-0.48438 0.32422-0.77734 0-0.28906-0.11719-0.57031-0.32422-0.77734l-5.25-5.25c1.9023-3.0547 3.2734-6.3555 4.082-9.8281h7.4102c0.60937 0 1.1016-0.49219 1.1016-1.1016l0.003906-12.836c-0.003906-0.60938-0.49609-1.1055-1.1055-1.1055zm-62.109 20.629c0-1.5664 0.74609-2.8594 2.1055-3.6445l20.273-11.703v23.41c0 1.5508-0.76953 2.8789-2.1055 3.6484l-7.7539 4.4766c-0.097656 0.039063-0.1875 0.09375-0.27344 0.15625l-12.25 7.0703zm61.008-7.793h-7.1953c-0.52344 0-0.97656 0.36719-1.0781 0.88281-0.77734 3.8125-2.2734 7.4102-4.4414 10.695-0.28906 0.4375-0.23047 1.0156 0.14062 1.3867l5.0977 5.0977-7.5156 7.5156-5.0977-5.0977c-0.37109-0.36719-0.94922-0.42969-1.3867-0.14062-3.2852 2.1641-6.8828 3.6602-10.695 4.4375-0.51172 0.10547-0.88281 0.55859-0.88281 1.082v7.1914h-10.629v-7.1914c0-0.51953-0.36328-0.97266-0.875-1.0781-0.22266-0.046875-0.42969-0.10156-0.64844-0.15234l5.5703-3.2188c1.9336-1.1133 3.0703-2.9922 3.1875-5.1914 11.121-0.98438 19.684-10.254 19.684-21.535 0-11.914-9.6914-21.605-21.605-21.605-5.9062 0-11.543 2.4297-15.613 6.6875l-4.9219-2.8438c-1.6641-0.96094-3.5234-1.1211-5.2578-0.51953l-5.0977-5.0977 7.5156-7.5156 5.0977 5.0977c0.37109 0.36719 0.94922 0.42969 1.3867 0.14062 3.2852-2.1641 6.8828-3.6602 10.695-4.4414 0.51172-0.10547 0.88281-0.55859 0.88281-1.0781v-7.1953h10.629v7.1953c0 0.51953 0.36719 0.97656 0.88281 1.0781 3.8594 0.78906 7.4609 2.2812 10.691 4.4375 0.4375 0.29297 1.0195 0.23047 1.3906-0.14062l5.0781-5.0977 7.5352 7.5156-5.0977 5.0977c-0.37109 0.37109-0.42969 0.94922-0.14062 1.3867 2.168 3.2852 3.6641 6.8867 4.4414 10.695 0.10547 0.51562 0.55469 0.88281 1.0781 0.88281h7.1953zm-59.523 6.2305c0.30469-0.52734 0.98047-0.71094 1.5039-0.40234l17.5 10.09c0.52734 0.30469 0.70703 0.98047 0.40234 1.5078-0.20313 0.35547-0.57422 0.55469-0.95703 0.55469-0.1875 0-0.375-0.050781-0.55078-0.14844l-17.492-10.098c-0.52734-0.30469-0.70703-0.97656-0.40625-1.5039zm4.5156-2.8945c0.30469-0.52344 0.97656-0.71094 1.5039-0.40234l13.223 7.625c0.52734 0.30469 0.70703 0.98047 0.40234 1.5078-0.20312 0.35547-0.57422 0.55078-0.95703 0.55078-0.1875 0-0.375-0.046875-0.55078-0.14844l-13.223-7.625c-0.51953-0.30469-0.70312-0.98047-0.39844-1.5078zm4.7539-2.7656c0.30469-0.52734 0.98047-0.70312 1.5078-0.40234l8.4688 4.9023c0.52734 0.30469 0.70703 0.98047 0.40234 1.5039-0.20312 0.35547-0.57422 0.55078-0.95312 0.55078-0.1875 0-0.37891-0.050781-0.55078-0.14844l-8.4688-4.9023c-0.53125-0.30469-0.71094-0.97656-0.40625-1.5039zm4.7734-2.7461c0.30469-0.52344 0.98047-0.70312 1.5039-0.39844l3.6953 2.1406c0.52734 0.30859 0.70703 0.98047 0.40234 1.5078-0.20312 0.35547-0.57422 0.55078-0.95312 0.55078-0.1875 0-0.37891-0.050781-0.55078-0.14844l-3.6953-2.1406c-0.52734-0.30859-0.70703-0.98438-0.40234-1.5117zm-8.6758 28.004c-0.20312 0.35547-0.57422 0.55078-0.95703 0.55078-0.1875 0-0.375-0.046874-0.55078-0.14453l-3.7148-2.1406c-0.52734-0.30469-0.71094-0.97656-0.40625-1.5039 0.30469-0.52734 0.97656-0.71094 1.5039-0.40625l3.7148 2.1406c0.53125 0.29688 0.71484 0.97266 0.41016 1.5039zm4.75-2.7461c-0.20312 0.35547-0.57422 0.55078-0.95312 0.55078-0.1875 0-0.37891-0.050781-0.55078-0.14844l-8.4688-4.9023c-0.52734-0.30859-0.70703-0.98047-0.40234-1.5078s0.98047-0.71094 1.5078-0.40234l8.4688 4.9023c0.52734 0.30859 0.70312 0.98047 0.39844 1.5078zm-10.375-11.492c0.30469-0.52344 0.97656-0.71094 1.5039-0.40234l13.242 7.625c0.52734 0.30469 0.71094 0.97656 0.40625 1.5078-0.20312 0.35547-0.57422 0.55078-0.95703 0.55078-0.1875 0-0.375-0.046875-0.54688-0.14453l-13.242-7.6328c-0.52734-0.30469-0.71094-0.97656-0.40625-1.5039z"/>
<text x="0.0" y="117.5" font-size="5.0" font-weight="bold" font-family="Arbeit Regular, Helvetica, Arial-Unicode, Arial, Sans-serif" fill="#000000">Created by KUSNIYAH</text><text x="0.0" y="122.5" font-size="5.0" font-weight="bold" font-family="Arbeit Regular, Helvetica, Arial-Unicode, Arial, Sans-serif" fill="#000000">from Noun Project</text></svg>