<svg xmlns="http://www.w3.org/2000/svg" xmlns:xlink="http://www.w3.org/1999/xlink" version="1.1" x="0px" y="0px" viewBox="0 0 96 120" style="enable-background:new 0 0 96 96;" xml:space="preserve"><path d="M61.561,52.094c-2.529,0-4.906,0.985-6.694,2.773c-3.691,3.691-3.691,9.697,0,13.388c1.846,1.846,4.27,2.768,6.694,2.768  s4.849-0.923,6.694-2.768c1.788-1.788,2.773-4.165,2.773-6.694c0-2.529-0.985-4.906-2.773-6.694  C66.467,53.079,64.09,52.094,61.561,52.094z M66.602,66.602c-2.78,2.78-7.303,2.78-10.083,0c-2.78-2.78-2.78-7.303,0-10.083  c1.347-1.347,3.137-2.088,5.041-2.088c1.904,0,3.695,0.742,5.041,2.088c1.347,1.347,2.088,3.137,2.088,5.041  C68.69,63.465,67.949,65.255,66.602,66.602z M92.152,41.025l-9.649-2.757c-0.763-2.71-1.846-5.321-3.227-7.782l4.875-8.776  c0.253-0.456,0.174-1.025-0.195-1.394l-8.274-8.274c-0.369-0.369-0.938-0.449-1.394-0.195l-8.776,4.876  c-2.461-1.381-5.073-2.465-7.781-3.227l-2.757-9.649C54.831,3.346,54.373,3,53.851,3H42.149c-0.522,0-0.98,0.346-1.124,0.848  l-2.757,9.649c-2.708,0.762-5.32,1.846-7.781,3.227l-8.776-4.876c-0.456-0.253-1.025-0.174-1.394,0.195l-8.274,8.274  c-0.369,0.369-0.449,0.938-0.195,1.394l4.875,8.775c-1.381,2.461-2.465,5.073-3.227,7.782l-9.648,2.757  C3.346,41.169,3,41.627,3,42.149v11.701c0,0.522,0.346,0.98,0.848,1.124l9.649,2.757c0.763,2.71,1.846,5.321,3.227,7.782  l-4.875,8.776c-0.253,0.456-0.174,1.025,0.195,1.394l8.274,8.274c0.369,0.369,0.938,0.448,1.394,0.195l8.776-4.876  c2.462,1.381,5.073,2.465,7.781,3.227l2.757,9.649C41.169,92.654,41.627,93,42.149,93h11.701c0.522,0,0.98-0.346,1.124-0.848  l2.757-9.649c2.709-0.763,5.321-1.846,7.782-3.227l8.776,4.875c0.456,0.253,1.025,0.174,1.394-0.195l0.872-0.872l2.822,2.822  c0.542,0.542,1.254,0.813,1.967,0.813c0.712,0,1.424-0.271,1.967-0.813l2.597-2.597c0.524-0.524,0.813-1.222,0.813-1.967  c0-0.744-0.289-1.442-0.813-1.967l-2.822-2.822l0.872-0.872c0.369-0.369,0.449-0.938,0.195-1.394l-4.876-8.776  c1.381-2.462,2.465-5.074,3.227-7.781l9.649-2.757C92.654,54.831,93,54.373,93,53.851V42.149C93,41.627,92.654,41.169,92.152,41.025  z M84.254,81.657l-2.597,2.597c-0.17,0.17-0.457,0.17-0.627,0l-7.792-7.792c-0.17-0.17-0.17-0.457,0-0.627l2.597-2.597  c0.111-0.111,0.244-0.128,0.314-0.128c0.069,0,0.202,0.017,0.314,0.128l7.792,7.792C84.424,81.2,84.424,81.487,84.254,81.657z   M69.033,69.033c-1.996,1.996-4.649,3.095-7.472,3.095c-2.822,0-5.476-1.099-7.472-3.095c-4.12-4.12-4.12-10.824,0-14.944  c4.12-4.12,10.824-4.12,14.944,0c1.996,1.996,3.095,4.649,3.095,7.472C72.128,64.383,71.028,67.037,69.033,69.033z M70.686,70.686  c0.069-0.069,0.135-0.142,0.202-0.212l2.203,2.203l-0.414,0.414l-2.203-2.203C70.544,70.82,70.616,70.755,70.686,70.686z   M90.662,52.969l-9.435,2.696c-0.397,0.114-0.705,0.429-0.81,0.828c-0.77,2.947-1.945,5.78-3.491,8.419  c-0.209,0.357-0.214,0.797-0.013,1.159l4.768,8.582l-0.249,0.249l-3.316-3.316c-0.524-0.524-1.222-0.813-1.967-0.813  c-0.47,0-0.922,0.116-1.323,0.333l-2.47-2.47c1.372-2.084,2.11-4.522,2.11-7.075c0-3.447-1.342-6.688-3.78-9.125  c-5.031-5.031-13.218-5.031-18.25,0c-5.031,5.032-5.031,13.218,0,18.25c2.437,2.437,5.678,3.78,9.125,3.78  c2.552,0,4.991-0.738,7.075-2.11l2.471,2.471c-0.569,1.054-0.41,2.399,0.479,3.288l3.316,3.317l-0.249,0.249l-8.582-4.768  c-0.361-0.201-0.802-0.196-1.159,0.013c-2.637,1.546-5.47,2.72-8.42,3.491c-0.4,0.105-0.715,0.412-0.828,0.81l-2.696,9.435h-9.938  l-2.696-9.435c-0.113-0.397-0.429-0.705-0.828-0.81c-2.947-0.77-5.78-1.945-8.419-3.491c-0.357-0.209-0.797-0.214-1.159-0.013  l-8.582,4.768l-7.027-7.027l4.768-8.582c0.201-0.361,0.196-0.802-0.013-1.159c-1.546-2.637-2.72-5.47-3.491-8.42  c-0.104-0.4-0.412-0.715-0.81-0.828l-9.435-2.696v-9.938l9.434-2.696c0.397-0.114,0.705-0.429,0.81-0.828  c0.77-2.948,1.945-5.781,3.492-8.42c0.209-0.357,0.214-0.797,0.013-1.159l-4.767-8.582l7.027-7.027l8.582,4.768  c0.361,0.201,0.802,0.196,1.158-0.013c2.639-1.546,5.472-2.721,8.419-3.491c0.4-0.105,0.715-0.412,0.828-0.81l2.696-9.435h9.938  l2.696,9.435c0.114,0.397,0.429,0.705,0.828,0.81c2.947,0.77,5.78,1.945,8.419,3.491c0.357,0.209,0.797,0.214,1.159,0.013  l8.582-4.768l7.027,7.027l-4.768,8.582c-0.201,0.361-0.196,0.802,0.013,1.159c1.546,2.637,2.72,5.47,3.491,8.42  c0.105,0.4,0.412,0.715,0.81,0.828l9.435,2.696V52.969z M76.222,48c0,1.357-0.097,2.721-0.289,4.055  c-0.092,0.639-0.685,1.082-1.323,0.99c-0.639-0.092-1.082-0.684-0.99-1.323c0.176-1.224,0.265-2.476,0.265-3.722  c0-14.273-11.612-25.884-25.884-25.884S22.116,33.727,22.116,48S33.727,73.884,48,73.884c1.139,0,2.285-0.075,3.407-0.222  c0.639-0.085,1.227,0.367,1.311,1.007c0.084,0.64-0.366,1.227-1.007,1.311c-1.222,0.161-2.471,0.242-3.711,0.242  c-15.562,0-28.222-12.66-28.222-28.222S32.438,19.778,48,19.778S76.222,32.438,76.222,48z M42.495,32.125c0-2.9-2.36-5.26-5.26-5.26  c-2.9,0-5.26,2.36-5.26,5.26s2.36,5.26,5.26,5.26C40.136,37.385,42.495,35.026,42.495,32.125z M34.313,32.125  c0-1.611,1.311-2.922,2.922-2.922c1.611,0,2.922,1.311,2.922,2.922s-1.311,2.922-2.922,2.922  C35.624,35.048,34.313,33.737,34.313,32.125z M64.025,32.125c0-2.9-2.36-5.26-5.26-5.26s-5.26,2.36-5.26,5.26s2.36,5.26,5.26,5.26  S64.025,35.026,64.025,32.125z M55.842,32.125c0-1.611,1.311-2.922,2.922-2.922s2.922,1.311,2.922,2.922s-1.311,2.922-2.922,2.922  S55.842,33.737,55.842,32.125z M67.015,42.639c0.283,0.58,0.042,1.28-0.539,1.563c-0.165,0.08-0.339,0.118-0.511,0.118  c-0.433,0-0.849-0.242-1.052-0.657c-1.156-2.372-3.512-3.845-6.149-3.845c-2.208,0-4.233,1.048-5.509,2.79  c1.253,0.876,2.29,2.071,2.994,3.516c0.283,0.58,0.042,1.28-0.539,1.563c-0.165,0.08-0.339,0.118-0.511,0.118  c-0.433,0-0.849-0.242-1.052-0.657c-0.655-1.343-1.694-2.397-2.951-3.06c-0.032-0.013-0.063-0.026-0.094-0.042  c-0.014-0.007-0.026-0.015-0.04-0.023c-0.93-0.465-1.972-0.721-3.064-0.721c-1.093,0-2.135,0.256-3.066,0.721  c-0.013,0.007-0.025,0.015-0.038,0.022c-0.03,0.015-0.06,0.028-0.091,0.041c-1.258,0.662-2.299,1.717-2.954,3.061  c-0.283,0.58-0.983,0.821-1.563,0.539c-0.58-0.283-0.821-0.982-0.539-1.563c0.704-1.445,1.741-2.64,2.994-3.516  c-1.276-1.742-3.301-2.79-5.509-2.79c-2.637,0-4.993,1.473-6.149,3.846c-0.203,0.415-0.619,0.657-1.052,0.657  c-0.172,0-0.346-0.038-0.511-0.118c-0.58-0.283-0.821-0.982-0.539-1.563c1.551-3.182,4.712-5.159,8.25-5.159  c3.085,0,5.908,1.523,7.602,4.038c0.993-0.361,2.059-0.553,3.162-0.553c1.103,0,2.17,0.192,3.162,0.553  c1.694-2.515,4.517-4.038,7.603-4.038C62.303,37.48,65.464,39.457,67.015,42.639z M48,40.871c2.9,0,5.26-2.36,5.26-5.26  s-2.36-5.26-5.26-5.26c-2.9,0-5.26,2.36-5.26,5.26S45.1,40.871,48,40.871z M48,32.688c1.611,0,2.922,1.311,2.922,2.922  S49.611,38.533,48,38.533c-1.611,0-2.922-1.311-2.922-2.922S46.389,32.688,48,32.688z"/><text x="0" y="111" fill="#000000" font-size="5px" font-weight="bold" font-family="'Helvetica Neue', Helvetica, Arial-Unicode, Arial, Sans-serif">Created by slamet</text><text x="0" y="116" fill="#000000" font-size="5px" font-weight="bold" font-family="'Helvetica Neue', Helvetica, Arial-Unicode, Arial, Sans-serif">from the Noun Project</text></svg>