<svg xmlns="http://www.w3.org/2000/svg" viewBox="0 0 64 80" x="0px" y="0px"><path d="M55.748,29.336s-.002-.002-.003-.002c-.006-.007-.014-.011-.021-.018-.073-.077-.158-.138-.25-.188-.031-.017-.061-.03-.093-.043-.03-.013-.058-.032-.089-.041l-23-7c-.189-.057-.393-.057-.582,0l-23,7c-.032,.01-.06,.029-.091,.042-.031,.013-.061,.026-.091,.042-.093,.051-.179,.112-.252,.189-.006,.006-.014,.01-.02,.017,0,0-.002,.001-.003,.002L.252,38.336c-.222,.249-.304,.593-.22,.916s.324,.583,.639,.692l7.329,2.549v12.507c0,.426,.27,.805,.671,.944l23,8c.106,.037,.218,.056,.329,.056,.124,0,.248-.023,.364-.068l23-9c.383-.15,.636-.52,.636-.932v-11.507l7.329-2.549c.315-.109,.555-.369,.639-.692s.001-.667-.22-.916l-8-9Zm-46.444,1.828l9.368,3.259c.109,.038,.22,.056,.329,.056,.414,0,.801-.259,.944-.672,.182-.521-.094-1.091-.616-1.272l-7.102-2.471,19.774-6.019,19.774,6.019-19.774,6.878-8.671-3.017c-.522-.182-1.092,.094-1.273,.616-.182,.521,.094,1.091,.616,1.272l7.588,2.64-6.563,7.383L2.741,38.547l6.563-7.383Zm.697,12.025l13.671,4.755c.38,.13,.807,.022,1.076-.28l6.252-7.034v20.964l-21-7.305v-11.1Zm44,10.128l-21,8.218v-20.905l6.252,7.034c.193,.218,.467,.336,.748,.336,.11,0,.221-.019,.329-.056l13.671-4.755v10.128Zm-13.697-7.481l-6.563-7.383,20.956-7.289,6.563,7.383-20.956,7.289Z"/><path d="M21,0h-6c-.552,0-1,.447-1,1V13h-3c-.404,0-.769,.243-.924,.617s-.069,.804,.217,1.09l7,7c.195,.195,.451,.293,.707,.293s.512-.098,.707-.293l7-7c.286-.286,.372-.716,.217-1.09s-.52-.617-.924-.617h-3V1c0-.553-.448-1-1-1Zm1.586,15l-4.586,4.586-4.586-4.586h1.586c.552,0,1-.447,1-1V2h4V14c0,.553,.448,1,1,1h1.586Z"/><path d="M43,22h6c.552,0,1-.447,1-1V9h3c.404,0,.769-.243,.924-.617s.069-.804-.217-1.09L46.707,.293c-.391-.391-1.023-.391-1.414,0l-7,7c-.286,.286-.372,.716-.217,1.09s.52,.617,.924,.617h3v12c0,.553,.448,1,1,1Zm-1.586-15l4.586-4.586,4.586,4.586h-1.586c-.552,0-1,.447-1,1v12h-4V8c0-.553-.448-1-1-1h-1.586Z"/><text x="0" y="79" fill="#000000" font-size="5px" font-weight="bold" font-family="'Helvetica Neue', Helvetica, Arial-Unicode, Arial, Sans-serif">Created by ToZIcon</text><text x="0" y="84" fill="#000000" font-size="5px" font-weight="bold" font-family="'Helvetica Neue', Helvetica, Arial-Unicode, Arial, Sans-serif">from the Noun Project</text></svg>