<svg xmlns="http://www.w3.org/2000/svg" version="1.1" viewBox="-5.0 -10.0 110.0 135.0">
 <path d="m87.582 16.637h-75.164c-1.332 0-2.418 1.2422-2.418 2.7656v52.867c0 1.5273 1.0859 2.7695 2.418 2.7695h3.9609c0.54688 1.5273 1.3789 2.9219 2.4336 4.1094l8.0312-8.7969v-11.91c-6.2773 0.66016-11.188 5.9766-11.188 12.422 0 0.52344 0.035156 1.0352 0.097656 1.5391h-3.1016c-0.011719-0.035156-0.019532-0.082032-0.019532-0.13672v-52.863c0-0.050782 0.007813-0.097656 0.019532-0.13281h74.695c0.011719 0.035157 0.019532 0.078125 0.019532 0.13281v52.867c0 0.054688-0.007813 0.10156-0.019532 0.13672h-4.8867v-8.3242c0-0.72656-0.58984-1.3164-1.3164-1.3164h-6.0156c-0.72656 0-1.3164 0.58984-1.3164 1.3164v8.3242h-1.5039v-19.711c0-0.72656-0.58984-1.3164-1.3164-1.3164h-6.0156c-0.72656 0-1.3164 0.58984-1.3164 1.3164v19.711h-1.5039v-14.449c0-0.72656-0.58984-1.3164-1.3164-1.3164h-6.0156c-0.72656 0-1.3164 0.58984-1.3164 1.3164v14.449h-1.5039v-24.195c0-0.72656-0.58984-1.3164-1.3164-1.3164h-6.0156c-0.72656 0-1.3164 0.58984-1.3164 1.3164v24.195h-2.7812c0.007812-0.074219 0.019531-0.14844 0.027343-0.22266h-11.859l-7.9844 8.7422c2.0742 1.5273 4.6328 2.4336 7.4023 2.4336 5.4336 0 10.066-3.4766 11.789-8.3164h3.4023v5.6836h-1.3281c-0.72656 0-1.3164 0.58984-1.3164 1.3164 0 0.72656 0.58984 1.3164 1.3164 1.3164h41.004c0.72656 0 1.3164-0.58984 1.3164-1.3164 0-0.72656-0.58984-1.3164-1.3164-1.3164h-0.56641v-5.6836h5.1211c1.332 0 2.418-1.2422 2.418-2.7695v-52.871c0-1.5234-1.0859-2.7656-2.418-2.7656zm-35.582 64.09v-5.6836h1.5039v5.6836zm10.152 0v-5.6836h1.5039v5.6836zm10.156 0v-5.6836h1.5039v5.6836zm-41.504-52.379c0 0.72656-0.58984 1.3164-1.3164 1.3164h-1.125c-0.72656 0-1.3164-0.58984-1.3164-1.3164 0-0.72656 0.58984-1.3164 1.3164-1.3164h1.125c0.72656 0 1.3164 0.58984 1.3164 1.3164zm-15.148 0c0-0.72656 0.58984-1.3164 1.3164-1.3164h6.4141c0.72656 0 1.3164 0.58984 1.3164 1.3164 0 0.72656-0.58984 1.3164-1.3164 1.3164h-6.4141c-0.72656 0-1.3164-0.58984-1.3164-1.3164zm15.18-4.6094c0 0.72656-0.58984 1.3164-1.3164 1.3164h-12.547c-0.72656 0-1.3164-0.58984-1.3164-1.3164 0-0.72656 0.58984-1.3164 1.3164-1.3164h12.547c0.72656 0 1.3164 0.58984 1.3164 1.3164zm-9.2695 18.105c0-2.6172 2.1328-4.7461 4.75-4.7461 1.0977 0 2.1094 0.375 2.9141 1l8.4102-6.1094c-0.18359-0.50391-0.28516-1.0508-0.28516-1.6172 0-2.6172 2.1328-4.7461 4.75-4.7461 2.6211 0 4.75 2.1289 4.75 4.7461v0.050781l7.2734 2.8672c0.87109-1.125 2.2305-1.8516 3.7617-1.8516 1.332 0 2.5391 0.55078 3.4023 1.4375l7.6836-4.1016c-0.027343-0.21094-0.046874-0.42578-0.046874-0.64453 0-2.6172 2.1328-4.7461 4.75-4.7461 2.6211 0 4.75 2.1289 4.75 4.7461 0 2.6172-2.1328 4.7461-4.75 4.7461-1.457 0-2.7617-0.65625-3.6328-1.6914l-7.5117 4.0078c0.066406 0.32031 0.10547 0.64844 0.10547 0.98828 0 2.6172-2.1328 4.7461-4.75 4.7461-2.6211 0-4.75-2.1289-4.75-4.7461 0-0.14844 0.007813-0.30078 0.023437-0.44531l-7.0703-2.7891c-0.84766 1.3008-2.3164 2.1641-3.9844 2.1641-1.0977 0-2.1094-0.375-2.9141-1l-8.4102 6.1094c0.18359 0.50391 0.28516 1.0508 0.28516 1.6172 0 2.6172-2.1328 4.7461-4.75 4.7461-2.6211 0-4.75-2.1289-4.75-4.7461zm60.867 3.3477c0 0.72656-0.58984 1.3164-1.3164 1.3164h-1.1289c-0.72656 0-1.3164-0.58984-1.3164-1.3164 0-0.72656 0.58984-1.3164 1.3164-1.3164h1.1289c0.72656 0 1.3164 0.58984 1.3164 1.3164zm-7.4375-1.3164c0.72656 0 1.3164 0.58984 1.3164 1.3164 0 0.72656-0.58984 1.3164-1.3164 1.3164h-6.4297c-0.72656 0-1.3164-0.58984-1.3164-1.3164 0-0.72656 0.58984-1.3164 1.3164-1.3164zm7.4648-3.2969c0 0.72656-0.58984 1.3164-1.3164 1.3164h-12.574c-0.72656 0-1.3164-0.58984-1.3164-1.3164s0.58984-1.3164 1.3164-1.3164h12.574c0.72656 0 1.3164 0.58984 1.3164 1.3164zm-52.984 17.871c5.8477 0.61328 10.508 5.2656 11.125 11.105h-11.125z"/>
<text x="0.0" y="117.5" font-size="5.0" font-weight="bold" font-family="Arbeit Regular, Helvetica, Arial-Unicode, Arial, Sans-serif" fill="#000000">Created by pojok_icon</text><text x="0.0" y="122.5" font-size="5.0" font-weight="bold" font-family="Arbeit Regular, Helvetica, Arial-Unicode, Arial, Sans-serif" fill="#000000">from Noun Project</text></svg>